<svg xmlns="http://www.w3.org/2000/svg" width="512" height="512" viewBox="0 0 512 512">
  <defs>
    <linearGradient id="bg" x1="0" y1="0" x2="1" y2="1">
      <stop offset="0%" stop-color="#4A90D9"/>
      <stop offset="100%" stop-color="#357ABD"/>
    </linearGradient>
  </defs>
  <rect width="512" height="512" rx="96" fill="url(#bg)"/>
  <!-- Octopus body -->
  <circle cx="256" cy="240" r="80" fill="white" opacity="0.95"/>
  <!-- Eyes -->
  <circle cx="228" cy="220" r="14" fill="#333"/>
  <circle cx="284" cy="220" r="14" fill="#333"/>
  <circle cx="232" cy="216" r="5" fill="white"/>
  <circle cx="288" cy="216" r="5" fill="white"/>
  <!-- Tentacles -->
  <path d="M176 280 Q160 340 140 380 Q130 400 150 410 Q170 420 180 390 Q190 360 200 320" stroke="white" stroke-width="12" fill="none" stroke-linecap="round" opacity="0.9"/>
  <path d="M196 300 Q180 360 160 410 Q150 430 170 435 Q190 440 200 410 Q210 380 220 340" stroke="white" stroke-width="11" fill="none" stroke-linecap="round" opacity="0.85"/>
  <path d="M336 280 Q352 340 372 380 Q382 400 362 410 Q342 420 332 390 Q322 360 312 320" stroke="white" stroke-width="12" fill="none" stroke-linecap="round" opacity="0.9"/>
  <path d="M316 300 Q332 360 352 410 Q362 430 342 435 Q322 440 312 410 Q302 380 292 340" stroke="white" stroke-width="11" fill="none" stroke-linecap="round" opacity="0.85"/>
  <!-- Smile -->
  <path d="M236 260 Q256 278 276 260" stroke="#333" stroke-width="4" fill="none" stroke-linecap="round"/>
  <!-- Compress arrows -->
  <path d="M130 160 L180 160 L180 140 L210 170 L180 200 L180 180 L130 180 Z" fill="white" opacity="0.8"/>
  <path d="M382 160 L332 160 L332 140 L302 170 L332 200 L332 180 L382 180 Z" fill="white" opacity="0.8"/>
</svg>
